<?xml version="1.0" encoding="UTF-8"?>
<svg version="1.1" xmlns="http://www.w3.org/2000/svg" width="2000" height="2000">
<path d="M0 0 C0.88494638 -0.00260775 1.76989277 -0.00521549 2.6816557 -0.00790226 C3.64963942 -0.00567154 4.61762313 -0.00344082 5.61493969 -0.0011425 C6.64655718 -0.00270249 7.67817466 -0.00426248 8.74105328 -0.00586975 C12.20864794 -0.00986829 15.67619905 -0.00669447 19.14379406 -0.00355339 C21.62560584 -0.00490796 24.10741743 -0.00668821 26.58922863 -0.00886345 C32.63765005 -0.01295699 38.6860543 -0.01234792 44.73447505 -0.00945081 C49.65136912 -0.00719316 54.56825971 -0.00688583 59.48515415 -0.00797462 C60.18475753 -0.00812786 60.8843609 -0.00828109 61.60516438 -0.00843897 C63.02639912 -0.00875869 64.44763387 -0.00908291 65.86886861 -0.00941156 C79.20159877 -0.01226428 92.53432206 -0.00898291 105.86705109 -0.00361119 C117.30288943 0.00085372 128.73871762 0.00008309 140.17455578 -0.00452995 C153.45466933 -0.00988444 166.73477685 -0.01198651 180.01489133 -0.00891769 C181.43183847 -0.00859914 182.84878562 -0.00828477 184.26573277 -0.00797462 C184.96288773 -0.00782035 185.66004269 -0.00766607 186.37832356 -0.00750712 C191.28680027 -0.00664438 196.19527316 -0.0080997 201.10374928 -0.01045418 C207.71517907 -0.01355578 214.32659269 -0.01133946 220.93802166 -0.00555992 C223.3652083 -0.00423733 225.79239656 -0.00461796 228.21958256 -0.00682259 C231.53189137 -0.0095538 234.8441387 -0.00612868 238.1564436 -0.0011425 C239.11773515 -0.00337322 240.0790267 -0.00560395 241.06944829 -0.00790226 C246.02177963 0.00656331 250.68974191 0.33189447 255.57616711 1.12584114 C256.52491711 1.12584114 257.47366711 1.12584114 258.45116711 1.12584114 C259.15241711 1.12584114 259.85366711 1.12584114 260.57616711 1.12584114 C260.90616711 1.45584114 261.23616711 1.78584114 261.57616711 2.12584114 C262.96741446 2.31036447 264.36493975 2.44853772 265.76366711 2.56334114 C269.60391979 2.94368566 272.95584209 3.73340844 276.57616711 5.12584114 C276.57616711 5.78584114 276.57616711 6.44584114 276.57616711 7.12584114 C278.06116711 6.63084114 278.06116711 6.63084114 279.57616711 6.12584114 C281.25825345 7.0996806 282.92354872 8.10279166 284.57616711 9.12584114 C287.26871701 9.83254842 287.26871701 9.83254842 289.57616711 10.12584114 C289.57616711 10.78584114 289.57616711 11.44584114 289.57616711 12.12584114 C290.31866711 12.06396614 291.06116711 12.00209114 291.82616711 11.93834114 C295.1547141 12.16528753 295.95291694 13.14320643 298.57616711 15.12584114 C300.50193497 16.04662436 302.44065163 16.9406102 304.38866711 17.81334114 C309.49635141 20.29563839 312.69883228 22.85317247 316.07616711 27.39146614 C317.76794375 29.34758288 319.24261801 30.06101776 321.57616711 31.12584114 C324.80897184 33.41984544 327.28455885 35.25101638 328.57616711 39.12584114 C329.25679211 39.80646614 329.93741711 40.48709114 330.63866711 41.18834114 C331.27804211 41.82771614 331.91741711 42.46709114 332.57616711 43.12584114 C332.57616711 43.78584114 332.57616711 44.44584114 332.57616711 45.12584114 C333.23616711 45.45584114 333.89616711 45.78584114 334.57616711 46.12584114 C337.1665424 48.48072777 338.45391576 49.7590871 339.57616711 53.12584114 C340.56924531 54.46433785 341.56973763 55.79735423 342.57616711 57.12584114 C344.63128562 60.75252087 346.57616711 64.91239538 346.57616711 69.12584114 C347.23616711 69.45584114 347.89616711 69.78584114 348.57616711 70.12584114 C349.44077664 71.53261506 350.24569719 72.97656663 351.01366711 74.43834114 C352.29370127 76.86599213 353.5366479 79.07375197 355.19726086 81.26255989 C356.88411295 83.5419606 357.15871405 85.34282077 357.57616711 88.12584114 C357.87421718 90.32331245 357.87421718 90.32331245 358.57616711 92.12584114 C359.56616711 92.45584114 360.55616711 92.78584114 361.57616711 93.12584114 C362.41991711 94.83287239 362.41991711 94.83287239 363.07616711 96.93834114 C364.1752786 100.18939725 365.49963739 102.38859743 367.57616711 105.12584114 C367.93229808 106.78778567 368.26825019 108.45429214 368.57616711 110.12584114 C369.23616711 110.78584114 369.89616711 111.44584114 370.57616711 112.12584114 C371.18224808 114.18399111 371.58790879 116.24631571 372.01366711 118.34849739 C372.19929211 118.93502083 372.38491711 119.52154427 372.57616711 120.12584114 C373.23616711 120.45584114 373.89616711 120.78584114 374.57616711 121.12584114 C377.91924809 124.99127852 379.92545343 128.57652286 381.88866711 133.25084114 C384.32349451 138.98566305 387.03355587 144.64664451 390.32616711 149.93834114 C391.69951042 152.34169194 392.06549278 154.42656255 392.57616711 157.12584114 C393.23616711 157.78584114 393.89616711 158.44584114 394.57616711 159.12584114 C395.65257836 161.53193688 396.50407865 163.80144308 397.07616711 166.37584114 C397.24116711 166.95334114 397.40616711 167.53084114 397.57616711 168.12584114 C398.23616711 168.45584114 398.89616711 168.78584114 399.57616711 169.12584114 C401.16401766 171.47585995 402.42350167 173.47701303 403.07616711 176.25084114 C403.41836201 178.23384295 403.41836201 178.23384295 405.07616711 179.43834114 C407.34721674 181.99327197 407.146649 184.81241578 407.57616711 188.12584114 C408.23616711 188.45584114 408.89616711 188.78584114 409.57616711 189.12584114 C412.38313046 193.65320139 414.53722881 198.21385344 416.57616711 203.12584114 C417.77023257 205.72468951 418.53394778 207.08362182 420.57616711 209.12584114 C422.937766 213.30476419 424.79595622 217.67531391 426.57616711 222.12584114 C427.23616711 223.11584114 427.89616711 224.10584114 428.57616711 225.12584114 C428.57616711 225.78584114 428.57616711 226.44584114 428.57616711 227.12584114 C429.05054211 227.51771614 429.52491711 227.90959114 430.01366711 228.31334114 C432.32282537 230.99196473 432.25171053 233.68660147 432.57616711 237.12584114 C433.23616711 237.12584114 433.89616711 237.12584114 434.57616711 237.12584114 C439.90326991 246.18191591 439.90326991 246.18191591 441.07616711 251.31334114 C441.47994341 253.35868779 441.47994341 253.35868779 443.57616711 255.12584114 C444.17451264 256.64640732 444.71123367 258.19196202 445.20116711 259.75084114 C445.46155773 260.56810677 445.72194836 261.38537239 445.99022961 262.22740364 C446.18358898 262.85388802 446.37694836 263.48037239 446.57616711 264.12584114 C447.23616711 264.12584114 447.89616711 264.12584114 448.57616711 264.12584114 C449.65141905 266.77812926 450.67072862 269.40952568 451.57616711 272.12584114 C452.05054211 272.55896614 452.52491711 272.99209114 453.01366711 273.43834114 C455.15548079 275.75149992 455.61432644 278.12716141 456.57616711 281.12584114 C457.83307984 283.83263661 459.20321453 286.47647171 460.57616711 289.12584114 C463.57616711 294.92731173 463.57616711 294.92731173 463.57616711 298.12584114 C464.23616711 298.45584114 464.89616711 298.78584114 465.57616711 299.12584114 C468.06120176 301.61087579 468.5123636 303.80145518 469.57616711 307.12584114 C470.62814487 309.60550301 471.68553981 311.25344263 473.45116711 313.31334114 C476.22995274 316.99114566 477.81601468 320.88978967 479.57616711 325.12584114 C480.11241711 326.32209114 480.64866711 327.51834114 481.20116711 328.75084114 C482.60329072 332.19241729 483.62455514 335.53899602 484.57616711 339.12584114 C485.23616711 339.12584114 485.89616711 339.12584114 486.57616711 339.12584114 C487.69180835 341.72900405 488.56807489 344.08133393 489.07616711 346.87584114 C489.24116711 347.61834114 489.40616711 348.36084114 489.57616711 349.12584114 C490.23616711 349.45584114 490.89616711 349.78584114 491.57616711 350.12584114 C493.04027677 352.40985222 494.36312989 354.6997667 495.57616711 357.12584114 C495.24616711 357.78584114 494.91616711 358.44584114 494.57616711 359.12584114 C495.23616711 359.45584114 495.89616711 359.78584114 496.57616711 360.12584114 C496.90950044 361.45917447 497.24283377 362.79250781 497.57616711 364.12584114 C498.23616711 364.45584114 498.89616711 364.78584114 499.57616711 365.12584114 C502.57616711 368.5873796 502.57616711 368.5873796 502.57616711 372.12584114 C503.23616711 372.78584114 503.89616711 373.44584114 504.57616711 374.12584114 C504.74116711 375.13646614 504.90616711 376.14709114 505.07616711 377.18834114 C505.24116711 378.15771614 505.40616711 379.12709114 505.57616711 380.12584114 C506.23616711 380.45584114 506.89616711 380.78584114 507.57616711 381.12584114 C508.59307974 383.11729505 509.59259359 385.11771188 510.57616711 387.12584114 C511.23616711 387.78584114 511.89616711 388.44584114 512.57616711 389.12584114 C513.27275074 390.78022727 513.93713594 392.44838432 514.57616711 394.12584114 C514.90616711 394.78584114 515.23616711 395.44584114 515.57616711 396.12584114 C516.57616711 398.12584114 516.57616711 398.12584114 517.38866711 400.37584114 C518.7796613 403.59709086 520.59715341 406.35354911 522.55272961 409.25865364 C523.57616711 411.12584114 523.57616711 411.12584114 523.57616711 414.12584114 C524.23616711 414.45584114 524.89616711 414.78584114 525.57616711 415.12584114 C526.20116711 418.18834114 526.20116711 418.18834114 526.57616711 421.12584114 C527.56616711 421.45584114 528.55616711 421.78584114 529.57616711 422.12584114 C530.30696977 424.10330717 530.97038457 426.10656603 531.57616711 428.12584114 C532.23616711 429.11584114 532.89616711 430.10584114 533.57616711 431.12584114 C533.24616711 431.78584114 532.91616711 432.44584114 532.57616711 433.12584114 C533.56616711 433.45584114 534.55616711 433.78584114 535.57616711 434.12584114 C535.90616711 436.10584114 536.23616711 438.08584114 536.57616711 440.12584114 C537.23616711 440.12584114 537.89616711 440.12584114 538.57616711 440.12584114 C538.57616711 441.11584114 538.57616711 442.10584114 538.57616711 443.12584114 C539.28772961 443.80646614 539.28772961 443.80646614 540.01366711 444.50084114 C542.02053475 446.58798349 542.06125977 448.33062989 542.57616711 451.12584114 C543.23616711 451.45584114 543.89616711 451.78584114 544.57616711 452.12584114 C544.94165156 453.45072227 545.26992371 454.78602628 545.57616711 456.12584114 C546.54048307 458.39887163 547.31469612 459.88528784 549.13866711 461.56334114 C551.0330272 463.6224282 551.04622907 465.40990869 551.57616711 468.12584114 C553.04387981 470.39038187 553.04387981 470.39038187 554.57616711 472.12584114 C554.24616711 472.78584114 553.91616711 473.44584114 553.57616711 474.12584114 C554.23616711 474.45584114 554.89616711 474.78584114 555.57616711 475.12584114 C558.86244698 480.12670182 561.69798055 485.15417258 562.57616711 491.12584114 C563.23616711 491.12584114 563.89616711 491.12584114 564.57616711 491.12584114 C564.86491711 492.23959114 565.15366711 493.35334114 565.45116711 494.50084114 C566.2685804 498.12875206 566.2685804 498.12875206 568.57616711 500.12584114 C568.57616711 501.44584114 568.57616711 502.76584114 568.57616711 504.12584114 C569.56616711 504.45584114 570.55616711 504.78584114 571.57616711 505.12584114 C572.2824295 507.11220412 572.94510282 509.11432373 573.57616711 511.12584114 C574.38054211 512.17771614 574.38054211 512.17771614 575.20116711 513.25084114 C576.57616711 515.12584114 576.57616711 515.12584114 576.57616711 519.12584114 C577.23616711 519.45584114 577.89616711 519.78584114 578.57616711 520.12584114 C581.13084064 523.90231506 582.82184066 527.93071269 584.57616711 532.12584114 C585.63097571 534.43323496 586.5660343 536.11375972 588.20116711 538.06334114 C589.8865649 540.59143783 589.82436078 542.14751708 589.57616711 545.12584114 C590.56616711 545.12584114 591.55616711 545.12584114 592.57616711 545.12584114 C594.35322919 542.46024801 595.45164983 540.09777964 596.57616711 537.12584114 C597.23616711 537.12584114 597.89616711 537.12584114 598.57616711 537.12584114 C598.48335461 536.01209114 598.48335461 536.01209114 598.38866711 534.87584114 C598.60959181 531.6356122 599.49359886 530.54162031 601.57616711 528.12584114 C602.65598504 526.1761071 602.65598504 526.1761071 603.01366711 524.06334114 C603.19929211 523.42396614 603.38491711 522.78459114 603.57616711 522.12584114 C604.23616711 521.79584114 604.89616711 521.46584114 605.57616711 521.12584114 C605.95028655 519.80337241 606.27627478 518.46709186 606.57616711 517.12584114 C607.19140975 515.61303673 607.83883419 514.11302009 608.51366711 512.62584114 C608.85269054 511.87302864 609.19171398 511.12021614 609.54101086 510.34459114 C609.88261242 509.61240364 610.22421398 508.88021614 610.57616711 508.12584114 C610.88683117 507.39365364 611.19749523 506.66146614 611.51757336 505.90709114 C612.57616711 504.12584114 612.57616711 504.12584114 615.57616711 503.12584114 C615.72054211 502.38334114 615.86491711 501.64084114 616.01366711 500.87584114 C616.19929211 499.96834114 616.38491711 499.06084114 616.57616711 498.12584114 C616.69991711 497.42459114 616.82366711 496.72334114 616.95116711 496.00084114 C617.71203726 493.71823068 618.88739278 492.81461547 620.57616711 491.12584114 C621.67122397 488.75321793 622.48676621 486.56007405 623.01366711 484.00084114 C623.57616711 482.12584114 623.57616711 482.12584114 625.01366711 480.81334114 C626.86160887 479.07364549 626.86160887 479.07364549 627.51366711 475.81334114 C628.63694448 471.91490789 630.27519383 469.43349023 632.57616711 466.12584114 C633.03829601 464.95408333 633.03829601 464.95408333 633.50976086 463.75865364 C634.99212198 460.09890494 637.11543094 456.944597 639.23632336 453.62584114 C640.59921617 451.08283413 641.16532524 448.96622936 641.57616711 446.12584114 C642.56616711 445.79584114 643.55616711 445.46584114 644.57616711 445.12584114 C644.67929211 444.05334114 644.78241711 442.98084114 644.88866711 441.87584114 C645.57706436 438.12094703 646.22488416 436.94738068 648.57616711 434.12584114 C649.26370011 432.4676733 649.93177994 430.80124778 650.57616711 429.12584114 C651.23616711 428.13584114 651.89616711 427.14584114 652.57616711 426.12584114 C653.25679211 424.73365364 653.25679211 424.73365364 653.95116711 423.31334114 C655.57616711 420.12584114 655.57616711 420.12584114 657.70116711 417.00084114 C659.30482693 414.54189608 660.13797543 412.97408705 660.57616711 410.12584114 C661.23616711 410.12584114 661.89616711 410.12584114 662.57616711 410.12584114 C662.76179211 408.42427864 662.76179211 408.42427864 662.95116711 406.68834114 C663.15741711 405.51271614 663.36366711 404.33709114 663.57616711 403.12584114 C664.23616711 402.79584114 664.89616711 402.46584114 665.57616711 402.12584114 C665.57616711 401.13584114 665.57616711 400.14584114 665.57616711 399.12584114 C666.23616711 399.12584114 666.89616711 399.12584114 667.57616711 399.12584114 C667.90616711 397.47584114 668.23616711 395.82584114 668.57616711 394.12584114 C669.23616711 394.12584114 669.89616711 394.12584114 670.57616711 394.12584114 C670.65866711 393.46584114 670.74116711 392.80584114 670.82616711 392.12584114 C671.82497049 388.1306276 673.65662049 384.74898538 675.57616711 381.12584114 C676.62103155 379.11329839 676.62103155 379.11329839 677.45116711 376.87584114 C678.67890876 373.87469487 680.09974231 371.01158052 681.57616711 368.12584114 C682.23616711 368.12584114 682.89616711 368.12584114 683.57616711 368.12584114 C683.48335461 366.98115364 683.48335461 366.98115364 683.38866711 365.81334114 C683.61828815 362.52210613 684.33305028 362.36895797 686.57616711 360.12584114 C687.2774955 357.80269083 687.94101884 355.46795036 688.57616711 353.12584114 C689.89788254 350.19508083 691.19786466 347.62520037 693.13866711 345.06334114 C694.76928684 342.86554933 695.65015612 340.69017926 696.57616711 338.12584114 C697.23616711 338.12584114 697.89616711 338.12584114 698.57616711 338.12584114 C698.67929211 337.07396614 698.78241711 336.02209114 698.88866711 334.93834114 C699.55566043 331.23956001 700.32606719 329.09597303 702.57616711 326.12584114 C703.23616711 326.12584114 703.89616711 326.12584114 704.57616711 326.12584114 C704.86491711 325.25959114 705.15366711 324.39334114 705.45116711 323.50084114 C705.82241711 322.38709114 706.19366711 321.27334114 706.57616711 320.12584114 C706.86491711 319.17709114 707.15366711 318.22834114 707.45116711 317.25084114 C708.83172198 313.4159665 710.29690231 309.52446018 712.57616711 306.12584114 C713.56616711 305.79584114 714.55616711 305.46584114 715.57616711 305.12584114 C716.85073534 301.97690786 717.67297644 298.77490729 718.57616711 295.50084114 C720.09298245 290.38158936 722.47669312 286.48447643 725.57616711 282.12584114 C726.23616711 281.79584114 726.89616711 281.46584114 727.57616711 281.12584114 C728.15374865 279.13874599 728.15374865 279.13874599 728.51366711 276.81334114 C729.24720767 273.16296607 730.06664689 270.94905138 732.57616711 268.12584114 C733.88251985 265.82051277 734.73473785 263.65012891 735.57616711 261.12584114 C736.41748251 258.60189494 737.33459828 256.46291187 738.57616711 254.12584114 C739.31866711 252.57896614 739.31866711 252.57896614 740.07616711 251.00084114 C741.60774386 248.06531903 742.61798197 246.60493371 745.57616711 245.12584114 C745.51429211 243.95021614 745.51429211 243.95021614 745.45116711 242.75084114 C745.57616711 240.12584114 745.57616711 240.12584114 747.57616711 238.12584114 C747.86491711 237.19771614 748.15366711 236.26959114 748.45116711 235.31334114 C749.65805528 231.89382465 751.30414422 229.91090145 753.57616711 227.12584114 C754.21869061 225.0571008 754.21869061 225.0571008 754.57616711 223.12584114 C755.23616711 222.13584114 755.89616711 221.14584114 756.57616711 220.12584114 C757.72555877 217.97073176 758.6874156 215.84076687 759.57616711 213.56334114 C760.57616711 211.12584114 760.57616711 211.12584114 762.57616711 208.12584114 C762.57616711 207.46584114 762.57616711 206.80584114 762.57616711 206.12584114 C763.23616711 205.46584114 763.89616711 204.80584114 764.57616711 204.12584114 C765.28864443 202.47823734 765.95017094 200.80820585 766.57616711 199.12584114 C768.35394488 194.34806336 768.35394488 194.34806336 770.57616711 192.12584114 C771.27739647 190.81035659 771.94166698 189.47477843 772.57616711 188.12584114 C773.20116711 186.87584114 773.82616711 185.62584114 774.45116711 184.37584114 C774.96937023 183.3375013 774.96937023 183.3375013 775.49804211 182.27818489 C776.21262396 180.85161024 776.93133134 179.42709411 777.65429211 178.00474739 C779.12052062 175.11058738 780.51783514 172.27491172 781.70116711 169.25084114 C782.57616711 167.12584114 782.57616711 167.12584114 784.57616711 165.12584114 C784.74116711 164.46584114 784.90616711 163.80584114 785.07616711 163.12584114 C785.57616711 161.12584114 785.57616711 161.12584114 787.57616711 159.12584114 C788.28327389 157.47592532 788.955607 155.81021858 789.57616711 154.12584114 C790.23616711 154.12584114 790.89616711 154.12584114 791.57616711 154.12584114 C791.51429211 153.01209114 791.51429211 153.01209114 791.45116711 151.87584114 C791.58361457 148.96199696 792.13242313 147.6122891 793.57616711 145.12584114 C793.87780773 144.50580208 794.17944836 143.88576302 794.49022961 143.24693489 C795.56692751 141.14388826 796.77732461 139.22286421 798.07616711 137.25084114 C800.16487939 133.96508907 801.39338132 130.8431679 802.57616711 127.12584114 C803.54889385 125.77248219 804.5500937 124.4392151 805.57616711 123.12584114 C806.09179211 122.07396614 806.60741711 121.02209114 807.13866711 119.93834114 C808.57616711 117.12584114 808.57616711 117.12584114 810.57616711 116.12584114 C810.69991711 115.05334114 810.82366711 113.98084114 810.95116711 112.87584114 C811.65325335 108.66332371 812.875949 107.317008 815.57616711 104.12584114 C816.73452383 101.15080992 816.73452383 101.15080992 817.57616711 98.12584114 C818.62390727 95.05745922 819.58859058 93.11040592 821.63866711 90.56334114 C823.5573007 88.1495763 823.94172303 87.02615692 824.57616711 84.12584114 C825.54502082 82.44087816 826.54603433 80.77405358 827.57616711 79.12584114 C829.01828942 76.48195024 829.94472888 74.07255287 830.57616711 71.12584114 C831.23616711 71.12584114 831.89616711 71.12584114 832.57616711 71.12584114 C832.57616711 70.46584114 832.57616711 69.80584114 832.57616711 69.12584114 C833.23616711 69.12584114 833.89616711 69.12584114 834.57616711 69.12584114 C834.57616711 67.80584114 834.57616711 66.48584114 834.57616711 65.12584114 C835.23616711 65.12584114 835.89616711 65.12584114 836.57616711 65.12584114 C836.24616711 64.13584114 835.91616711 63.14584114 835.57616711 62.12584114 C836.43163586 60.07505989 836.43163586 60.07505989 837.76366711 57.81334114 C838.22772961 57.02443489 838.69179211 56.23552864 839.16991711 55.42271614 C839.63397961 54.66474739 840.09804211 53.90677864 840.57616711 53.12584114 C840.95772961 52.49162239 841.33929211 51.85740364 841.73241711 51.20396614 C842.6143534 49.80088568 843.58728706 48.45571431 844.57616711 47.12584114 C845.23616711 47.12584114 845.89616711 47.12584114 846.57616711 47.12584114 C846.90616711 46.13584114 847.23616711 45.14584114 847.57616711 44.12584114 C849.63866711 42.93834114 849.63866711 42.93834114 851.57616711 42.12584114 C851.24616711 41.13584114 850.91616711 40.14584114 850.57616711 39.12584114 C851.35991711 38.69271614 852.14366711 38.25959114 852.95116711 37.81334114 C855.84074012 35.95575849 857.05304587 34.17208361 858.57616711 31.12584114 C859.23616711 31.12584114 859.89616711 31.12584114 860.57616711 31.12584114 C860.90616711 30.46584114 861.23616711 29.80584114 861.57616711 29.12584114 C863.2158392 27.75944773 864.88726838 26.43089925 866.57616711 25.12584114 C867.42179211 24.42459114 868.26741711 23.72334114 869.13866711 23.00084114 C871.81905639 20.93900323 874.4528183 19.63315996 877.51366711 18.25084114 C879.76598287 17.10267186 879.76598287 17.10267186 882.20116711 15.00084114 C884.57616711 13.12584114 884.57616711 13.12584114 886.57616711 13.12584114 C887.23616711 12.46584114 887.89616711 11.80584114 888.57616711 11.12584114 C890.90950044 10.45917447 893.24283377 9.79250781 895.57616711 9.12584114 C896.23616711 8.46584114 896.89616711 7.80584114 897.57616711 7.12584114 C899.90950044 6.79250781 902.24283377 6.45917447 904.57616711 6.12584114 C906.88087088 5.41762488 909.14513853 4.6235695 911.41991711 3.82505989 C914.10511377 2.95431677 916.77979207 2.48435076 919.57616711 2.12584114 C919.57616711 1.79584114 919.57616711 1.46584114 919.57616711 1.12584114 C920.66284679 1.14324348 920.66284679 1.14324348 921.77147961 1.16099739 C922.73827648 1.17002083 923.70507336 1.17904427 924.70116711 1.18834114 C925.65249523 1.1999427 926.60382336 1.21154427 927.58397961 1.22349739 C930.51834772 1.20762814 930.51834772 1.20762814 933.12030315 0.6276741 C937.71804526 -0.03997328 942.22234596 -0.01189213 946.86217785 -0.0011425 C948.4132257 -0.00348249 948.4132257 -0.00348249 949.99560785 -0.00586975 C953.45932441 -0.00985732 956.9229971 -0.00669875 960.38671398 -0.00355339 C962.87044329 -0.00490842 965.35417239 -0.00668893 967.83790112 -0.00886345 C973.88303911 -0.01295182 979.92815991 -0.01235078 985.97329724 -0.00945081 C990.88681492 -0.00719138 995.80032911 -0.0068866 1000.71384716 -0.00797462 C1001.41346828 -0.00812786 1002.11308939 -0.00828109 1002.83391115 -0.00843897 C1004.25522856 -0.0087587 1005.67654597 -0.00908291 1007.09786338 -0.00941156 C1020.421988 -0.01226232 1033.74610574 -0.00898565 1047.07022923 -0.00361119 C1058.50010911 0.00085648 1069.92997882 0.00008043 1081.35985851 -0.00452995 C1094.63668087 -0.00988283 1107.9134972 -0.01198767 1121.19032049 -0.00891769 C1122.60637601 -0.00859914 1124.02243153 -0.00828477 1125.43848705 -0.00797462 C1126.13519275 -0.00782035 1126.83189845 -0.00766607 1127.54971644 -0.00750712 C1132.45668239 -0.00664411 1137.3636445 -0.00810021 1142.27060986 -0.01045418 C1148.87631762 -0.01355345 1155.48200917 -0.01134325 1162.0877161 -0.00555992 C1164.51371192 -0.00423639 1166.93970936 -0.00461957 1169.36570454 -0.00682259 C1172.67387705 -0.00954998 1175.9819878 -0.00613337 1179.29015636 -0.0011425 C1180.25299652 -0.00337322 1181.21583667 -0.00560395 1182.20785379 -0.00790226 C1186.7797569 0.0055005 1191.07777306 0.18677501 1195.57616711 1.12584114 C1195.57616711 1.78584114 1195.57616711 2.44584114 1195.57616711 3.12584114 C1198.21616711 3.12584114 1200.85616711 3.12584114 1203.57616711 3.12584114 C1203.57616711 3.78584114 1203.57616711 4.44584114 1203.57616711 5.12584114 C1205.43241711 5.28052864 1205.43241711 5.28052864 1207.32616711 5.43834114 C1210.89007868 5.87281093 1212.88860971 6.64501893 1215.57616711 9.12584114 C1216.23616711 9.45584114 1216.89616711 9.78584114 1217.57616711 10.12584114 C1218.70935228 10.92688584 1219.83341901 11.74089331 1220.95116711 12.56334114 C1223.41439179 14.34034523 1225.79068018 15.88784695 1228.57616711 17.12584114 C1230.57616711 18.12584114 1230.57616711 18.12584114 1231.45116711 20.06334114 C1232.40440162 22.27790193 1232.40440162 22.27790193 1234.57616711 23.12584114 C1237.12509581 24.40030549 1237.38258354 25.58947607 1238.57616711 28.12584114 C1239.53522961 28.99209114 1239.53522961 28.99209114 1240.51366711 29.87584114 C1242.9716957 32.55732688 1243.78456438 34.99246544 1244.86522961 38.41880989 C1245.44379259 40.33204674 1245.44379259 40.33204674 1247.57616711 41.12584114 C1248.07616711 42.75084114 1248.07616711 42.75084114 1248.57616711 45.12584114 C1249.04022961 46.70365364 1249.04022961 46.70365364 1249.51366711 48.31334114 C1252.5859018 59.33724209 1253.73212951 69.9616668 1253.7003656 81.39596331 C1253.70164369 82.38649784 1253.70292178 83.37703238 1253.70423859 84.39758311 C1253.7072989 87.71359759 1253.70324122 91.02956435 1253.69921494 94.34557724 C1253.69995477 96.75847498 1253.70113356 99.17137261 1253.70271143 101.58426994 C1253.70514088 106.84520729 1253.70445957 112.10613064 1253.70105029 117.36706646 C1253.69596658 125.2427421 1253.69667928 133.11841003 1253.69851686 140.99408672 C1253.70148129 154.41688477 1253.69971166 167.83967846 1253.69537258 181.26247597 C1253.69099476 194.86503461 1253.68879996 208.46759101 1253.68927479 222.07015038 C1253.68931783 223.35877581 1253.68931783 223.35877581 1253.68936173 224.67343409 C1253.68951811 229.0538884 1253.68971006 233.43434271 1253.68991457 237.81479702 C1253.69132217 269.52286592 1253.68789088 301.23093281 1253.68189716 332.93900108 C1253.67597536 364.34162722 1253.67212221 395.7442525 1253.67104435 427.1468792 C1253.67100994 428.12200718 1253.67097553 429.09713516 1253.67094007 430.10181248 C1253.67062687 439.00806222 1253.67033918 447.91431195 1253.6700821 456.82056169 C1253.66944269 478.96082135 1253.66848336 501.101081 1253.6673069 523.24134064 C1253.66725358 524.24957595 1253.66720027 525.25781127 1253.66714533 526.29659917 C1253.66452361 575.34531166 1253.65821596 624.39402359 1253.65160656 673.44273567 C1253.64931491 690.46442349 1253.64703955 707.48611132 1253.64483166 724.50779915 C1253.64469471 725.56348126 1253.64455776 726.61916338 1253.64441666 727.70683586 C1253.63807295 776.77992331 1253.63434711 825.85301085 1253.63129686 874.9260986 C1253.6310988 878.11183589 1253.63089961 881.29757317 1253.63070018 884.48331046 C1253.62938041 905.59530136 1253.62810576 926.70729225 1253.62686132 947.81928315 C1253.6243848 989.82715187 1253.62164312 1031.83502058 1253.61871928 1073.84288928 C1253.61858004 1075.84342794 1253.61844098 1077.8439666 1253.61830211 1079.84450526 C1253.61204878 1169.90784797 1253.60271075 1259.97119026 1253.59203625 1350.03453255 C1253.59188634 1351.29954946 1253.59188634 1351.29954946 1253.59173341 1352.59012227 C1253.58673292 1394.76869525 1253.58155641 1436.94726821 1253.57616711 1479.12584114 C1252.91616711 1479.12584114 1252.25616711 1479.12584114 1251.57616711 1479.12584114 C1251.76179211 1479.84771614 1251.94741711 1480.56959114 1252.13866711 1481.31334114 C1253.21523777 1488.23415253 1249.75866756 1496.05015846 1246.57616711 1502.12584114 C1245.91616711 1502.12584114 1245.25616711 1502.12584114 1244.57616711 1502.12584114 C1244.57616711 1503.77584114 1244.57616711 1505.42584114 1244.57616711 1507.12584114 C1243.91616711 1507.12584114 1243.25616711 1507.12584114 1242.57616711 1507.12584114 C1242.24616711 1508.44584114 1241.91616711 1509.76584114 1241.57616711 1511.12584114 C1240.91616711 1511.12584114 1240.25616711 1511.12584114 1239.57616711 1511.12584114 C1239.24616711 1512.44584114 1238.91616711 1513.76584114 1238.57616711 1515.12584114 C1237.91616711 1515.12584114 1237.25616711 1515.12584114 1236.57616711 1515.12584114 C1236.24616711 1516.11584114 1235.91616711 1517.10584114 1235.57616711 1518.12584114 C1233.12300853 1520.91971619 1231.31987007 1522.83850136 1227.82616711 1524.18834114 C1226.71241711 1524.65240364 1226.71241711 1524.65240364 1225.57616711 1525.12584114 C1224.68923407 1527.16689754 1224.68923407 1527.16689754 1224.57616711 1529.12584114 C1222.59616711 1529.45584114 1220.61616711 1529.78584114 1218.57616711 1530.12584114 C1218.57616711 1530.78584114 1218.57616711 1531.44584114 1218.57616711 1532.12584114 C1215.60988705 1534.18575785 1213.04778703 1535.29956998 1209.57616711 1536.12584114 C1208.02988026 1536.61136466 1206.48820309 1537.11178228 1204.95116711 1537.62584114 C1204.17515148 1537.88365364 1203.39913586 1538.14146614 1202.59960461 1538.40709114 C1200.54508711 1539.09053451 1200.54508711 1539.09053451 1198.57616711 1540.12584114 C1197.01824146 1540.33090631 1195.45428428 1540.49157688 1193.88866711 1540.62584114 C1191.04074748 1540.87387147 1188.25410093 1541.1780313 1185.43053104 1541.63558494 C1181.3010588 1542.16083357 1177.25889849 1542.26418782 1173.10556293 1542.2511903 C1172.27339821 1542.25259262 1171.44123349 1542.25399494 1170.58385167 1542.25543975 C1167.7895527 1542.25892523 1164.99530888 1542.25527994 1162.2010107 1542.25168228 C1160.17112225 1542.25272529 1158.14123398 1542.25420645 1156.11134613 1542.25608665 C1150.50789434 1542.25999516 1144.90445969 1542.25764315 1139.30100818 1542.25430869 C1133.21456334 1542.25177991 1127.12812121 1542.25502876 1121.04167676 1542.25755203 C1110.36607086 1542.2611708 1099.69047064 1542.26108351 1089.01486492 1542.25850487 C1077.55896952 1542.2557546 1066.10307709 1542.25517248 1054.64718151 1542.2572422 C1053.56224765 1542.25743596 1053.56224765 1542.25743596 1052.45539593 1542.25763363 C1049.50960999 1542.2581669 1046.56382405 1542.25871561 1043.61803812 1542.25928391 C1016.17382085 1542.26457478 988.72960556 1542.2649313 961.28538799 1542.26213646 C960.06528386 1542.26201227 960.06528386 1542.26201227 958.82053117 1542.26188556 C958.00583262 1542.26180263 957.19113407 1542.2617197 956.35174769 1542.26163426 C931.54815884 1542.25911275 906.74457081 1542.25845891 881.94098186 1542.25965691 C880.28109224 1542.25973439 878.62120261 1542.25981154 876.96131299 1542.25988838 C870.29122641 1542.26019883 863.62113984 1542.2605175 856.95105327 1542.26084814 C838.30490312 1542.26176521 819.65875297 1542.26233576 801.01260281 1542.26263428 C800.16346141 1542.26264792 799.31432002 1542.26266157 798.43944707 1542.26267563 C771.37666127 1542.26308499 744.31387576 1542.26195757 717.25109005 1542.2597847 C716.373148 1542.25971445 715.49520595 1542.2596442 714.5906596 1542.25957182 C700.33271053 1542.25842682 686.07476145 1542.25720738 671.81681238 1542.25598165 C615.25515119 1542.2511243 558.69349236 1542.25135138 502.13183117 1542.25621223 C487.87637743 1542.25743338 473.62092368 1542.25864441 459.36546993 1542.2597847 C458.48776773 1542.25985515 457.61006553 1542.25992559 456.7057663 1542.25999818 C429.66803045 1542.2621535 402.63029479 1542.2630688 375.59255886 1542.26263428 C374.74409199 1542.26262069 373.89562512 1542.26260711 373.02144713 1542.26259311 C354.39860134 1542.26228067 335.77575556 1542.26164711 317.15290978 1542.26072377 C310.48998632 1542.26039462 303.82706285 1542.26008154 297.16413938 1542.25977306 C295.50651058 1542.25969568 293.84888177 1542.25961694 292.19125297 1542.25953687 C267.39004342 1542.25834207 242.58883479 1542.25936203 217.78762535 1542.26188556 C216.97389142 1542.26196836 216.16015748 1542.26205115 215.32176495 1542.26213646 C214.50952581 1542.26221914 213.69728667 1542.26230182 212.86043423 1542.26238701 C185.50119073 1542.26514161 158.14194962 1542.26413798 130.78270647 1542.25885572 C127.84832047 1542.25830333 124.91393446 1542.25776663 121.97954845 1542.2572422 C121.25937526 1542.257112 120.53920206 1542.25698179 119.79720543 1542.25684764 C108.36764545 1542.25487087 96.93808841 1542.25625312 85.5085287 1542.25901121 C74.28548626 1542.26164857 63.0624488 1542.26065761 51.8394066 1542.25599712 C45.82942972 1542.25360364 39.8194641 1542.25283523 33.80948755 1542.2564031 C28.35272594 1542.25960975 22.89598568 1542.2582956 17.43922566 1542.25322244 C15.46727778 1542.25220711 13.49532816 1542.25290251 11.52338164 1542.25542838 C8.86401946 1542.25859565 6.20473317 1542.25570212 3.54537463 1542.2511903 C2.77185382 1542.25358105 1.99833301 1542.25597179 1.20137217 1542.25843498 C-1.94638806 1542.24744848 -4.41406245 1542.12909796 -7.42383289 1541.12584114 C-9.08858975 1540.78309708 -10.75578613 1540.45219812 -12.42383289 1540.12584114 C-13.987481 1539.79793573 -15.54991149 1539.46419088 -17.11133289 1539.12584114 C-17.87832508 1538.96084114 -18.64531727 1538.79584114 -19.43555164 1538.62584114 C-21.42383289 1538.12584114 -21.42383289 1538.12584114 -23.42383289 1537.12584114 C-23.42383289 1536.46584114 -23.42383289 1535.80584114 -23.42383289 1535.12584114 C-24.41383289 1535.45584114 -25.40383289 1535.78584114 -26.42383289 1536.12584114 C-32.05763571 1532.85823551 -32.05763571 1532.85823551 -33.42383289 1530.12584114 C-34.74383289 1530.12584114 -36.06383289 1530.12584114 -37.42383289 1530.12584114 C-38.79946144 1528.83618938 -40.13149682 1527.49894822 -41.42383289 1526.12584114 C-42.12508289 1525.79584114 -42.82633289 1525.46584114 -43.54883289 1525.12584114 C-45.94020796 1523.8504411 -46.23495406 1522.50359881 -47.42383289 1520.12584114 C-49.4574277 1518.85779548 -49.4574277 1518.85779548 -51.42383289 1518.12584114 C-51.42383289 1516.80584114 -51.42383289 1515.48584114 -51.42383289 1514.12584114 C-52.41383289 1513.79584114 -53.40383289 1513.46584114 -54.42383289 1513.12584114 C-54.7959371 1511.80280397 -55.13013463 1510.46846179 -55.42383289 1509.12584114 C-56.08383289 1508.79584114 -56.74383289 1508.46584114 -57.42383289 1508.12584114 C-58.08383289 1507.79584114 -58.74383289 1507.46584114 -59.42383289 1507.12584114 C-60.11323098 1504.7991226 -60.77850212 1502.46516521 -61.42383289 1500.12584114 C-62.41383289 1498.64084114 -62.41383289 1498.64084114 -63.42383289 1497.12584114 C-65.47679746 1491.44999793 -66.58600781 1486.09534484 -67.42383289 1480.12584114 C-67.5965838 1479.42703912 -67.76933471 1478.7282371 -67.94732049 1478.00825926 C-68.64005175 1473.81793575 -68.55960735 1469.68482895 -68.54803139 1465.44465131 C-68.54930948 1464.45703507 -68.55058756 1463.46941883 -68.55190438 1462.45187483 C-68.55498671 1459.11565295 -68.55089277 1455.77947769 -68.54688072 1452.44325733 C-68.5476199 1450.02765995 -68.54879799 1447.61206268 -68.55037722 1445.1964657 C-68.55281359 1439.91405786 -68.5521161 1434.63166394 -68.54871608 1429.34925761 C-68.54364605 1421.44136201 -68.54434193 1413.53347413 -68.54618265 1405.62557749 C-68.54915153 1392.14983558 -68.54737211 1378.674098 -68.54303837 1365.19835663 C-68.53866433 1351.53725828 -68.53646531 1337.87616217 -68.53694057 1324.2150631 C-68.53696927 1323.35307323 -68.53699796 1322.49108336 -68.53702752 1321.60297259 C-68.53718389 1317.20789062 -68.53737584 1312.81280866 -68.53758036 1308.41772669 C-68.53898887 1276.58360088 -68.53555352 1244.74947706 -68.52956295 1212.91535187 C-68.52364333 1181.38299423 -68.51978843 1149.85063745 -68.51871014 1118.31827927 C-68.51867572 1117.33951519 -68.51864131 1116.36075111 -68.51860586 1115.35232752 C-68.51829266 1106.41301036 -68.51800497 1097.4736932 -68.51774788 1088.53437604 C-68.51710843 1066.31083512 -68.51614908 1044.08729422 -68.51497269 1021.86375332 C-68.51491937 1020.85166914 -68.51486605 1019.83958496 -68.51481112 1018.79683157 C-68.51218871 969.54785853 -68.50588078 920.29888605 -68.49927235 871.04991341 C-68.49698072 853.95640755 -68.49470537 836.86290169 -68.49249744 819.76939583 C-68.49236049 818.70927523 -68.49222355 817.64915464 -68.49208245 816.55690917 C-68.48574002 767.28753487 -68.48201331 718.01816047 -68.47896265 668.74878587 C-68.47876458 665.55073407 -68.47856539 662.35268226 -68.47836597 659.15463046 C-68.4770462 637.96122447 -68.47577155 616.76781847 -68.47452711 595.57441248 C-68.47205052 553.40370163 -68.46930883 511.23299079 -68.46638506 469.06227997 C-68.46624582 467.05393691 -68.46610677 465.04559386 -68.4659679 463.0372508 C-68.45971369 372.60999353 -68.4503754 282.18273666 -68.43970203 191.75547981 C-68.4396021 190.90863715 -68.43950216 190.06179448 -68.4393992 189.18928991 C-68.43439859 146.83480697 -68.42922206 104.48032404 -68.42383289 62.12584114 C-67.76383289 62.12584114 -67.10383289 62.12584114 -66.42383289 62.12584114 C-66.63008289 61.61021614 -66.83633289 61.09459114 -67.04883289 60.56334114 C-67.5886394 57.05459887 -66.50545189 54.48455275 -65.42383289 51.12584114 C-65.13508289 49.95021614 -64.84633289 48.77459114 -64.54883289 47.56334114 C-63.34192058 43.87555353 -61.59767787 41.31867595 -59.42383289 38.12584114 C-58.73422327 36.13363557 -58.06304233 34.13478508 -57.42383289 32.12584114 C-56.29864001 31.00064826 -55.16145756 29.88628106 -53.98633289 28.81334114 C-52.27397083 27.08162097 -52.27397083 27.08162097 -50.86133289 24.50084114 C-49.42383289 22.12584114 -49.42383289 22.12584114 -47.42383289 21.12584114 C-46.76383289 20.46584114 -46.10383289 19.80584114 -45.42383289 19.12584114 C-43.42383289 17.12584114 -43.42383289 17.12584114 -41.36133289 16.12584114 C-39.25517688 15.27994172 -39.25517688 15.27994172 -38.42383289 13.12584114 C-35.71606885 11.32066511 -33.42300719 10.31156121 -30.42383289 9.12584114 C-29.51633289 8.65146614 -28.60883289 8.17709114 -27.67383289 7.68834114 C-21.53483944 4.73690198 -14.9805752 2.92573119 -8.42383289 1.12584114 C-7.78933226 0.94538974 -7.15483163 0.76493834 -6.5011037 0.57901871 C-4.2709646 0.09249138 -2.28166206 0.00048534 0 0 Z " fill="#FEFEFE" transform="translate(407.4238328933716,228.87415885925293)"/>
<path d="" fill="#FFFFFF" transform="translate(0,0)"/>
<path d="" fill="#FFFFFF" transform="translate(0,0)"/>
<path d="" fill="#FEFEFF" transform="translate(0,0)"/>
<path d="" fill="#FEFEFD" transform="translate(0,0)"/>
<path d="" fill="#FDFFFD" transform="translate(0,0)"/>
<path d="" fill="#FFFDFF" transform="translate(0,0)"/>
<path d="" fill="#FFFEFF" transform="translate(0,0)"/>
<path d="" fill="#FDFEFE" transform="translate(0,0)"/>
<path d="" fill="#FFFEFF" transform="translate(0,0)"/>
<path d="" fill="#FEFEFE" transform="translate(0,0)"/>
<path d="" fill="#FEFFFE" transform="translate(0,0)"/>
<path d="" fill="#FFFEFF" transform="translate(0,0)"/>
<path d="" fill="#FFFEFE" transform="translate(0,0)"/>
<path d="" fill="#FFFDFF" transform="translate(0,0)"/>
<path d="" fill="#FFFFFE" transform="translate(0,0)"/>
<path d="" fill="#FFFDFD" transform="translate(0,0)"/>
<path d="" fill="#FFFDFF" transform="translate(0,0)"/>
<path d="" fill="#FDFDFF" transform="translate(0,0)"/>
<path d="" fill="#FDFEFF" transform="translate(0,0)"/>
<path d="" fill="#FEFDFF" transform="translate(0,0)"/>
<path d="" fill="#FFFEFF" transform="translate(0,0)"/>
<path d="" fill="#FFFEFF" transform="translate(0,0)"/>
<path d="" fill="#FFFFFF" transform="translate(0,0)"/>
<path d="" fill="#FFFFFF" transform="translate(0,0)"/>
<path d="" fill="#FFFEFF" transform="translate(0,0)"/>
<path d="" fill="#FFFDFF" transform="translate(0,0)"/>
<path d="" fill="#FFFFFF" transform="translate(0,0)"/>
<path d="" fill="#FFFEFE" transform="translate(0,0)"/>
<path d="" fill="#FFFDFF" transform="translate(0,0)"/>
<path d="" fill="#FFFFFF" transform="translate(0,0)"/>
<path d="" fill="#FDFFFF" transform="translate(0,0)"/>
<path d="" fill="#FFFDFF" transform="translate(0,0)"/>
<path d="" fill="#FFFFFF" transform="translate(0,0)"/>
<path d="" fill="#FFFEFF" transform="translate(0,0)"/>
<path d="" fill="#FFFDFF" transform="translate(0,0)"/>
<path d="" fill="#FFFEFF" transform="translate(0,0)"/>
<path d="" fill="#FFFEFF" transform="translate(0,0)"/>
<path d="" fill="#FFFEFF" transform="translate(0,0)"/>
<path d="" fill="#FDFFFF" transform="translate(0,0)"/>
<path d="" fill="#FFFEFF" transform="translate(0,0)"/>
<path d="" fill="#FFFFFF" transform="translate(0,0)"/>
<path d="" fill="#FEFEFE" transform="translate(0,0)"/>
<path d="" fill="#FFFDFE" transform="translate(0,0)"/>
<path d="" fill="#FDFEFE" transform="translate(0,0)"/>
<path d="" fill="#FFFFFF" transform="translate(0,0)"/>
<path d="" fill="#FFFDFF" transform="translate(0,0)"/>
<path d="" fill="#FFFEFD" transform="translate(0,0)"/>
<path d="" fill="#FFFEFF" transform="translate(0,0)"/>
<path d="" fill="#FFFDFF" transform="translate(0,0)"/>
<path d="" fill="#FFFFFF" transform="translate(0,0)"/>
<path d="" fill="#FFFDFF" transform="translate(0,0)"/>
<path d="" fill="#FFFEFE" transform="translate(0,0)"/>
<path d="" fill="#FFFDFF" transform="translate(0,0)"/>
<path d="" fill="#FDFDFE" transform="translate(0,0)"/>
<path d="" fill="#FFFFFF" transform="translate(0,0)"/>
<path d="" fill="#FFFDFF" transform="translate(0,0)"/>
<path d="" fill="#FFFFFF" transform="translate(0,0)"/>
<path d="" fill="#FFFFFD" transform="translate(0,0)"/>
<path d="" fill="#FFFEFF" transform="translate(0,0)"/>
<path d="" fill="#FFFDFF" transform="translate(0,0)"/>
<path d="" fill="#FFFFFF" transform="translate(0,0)"/>
<path d="" fill="#FEFFFE" transform="translate(0,0)"/>
<path d="" fill="#FFFEFF" transform="translate(0,0)"/>
<path d="" fill="#FFFEFE" transform="translate(0,0)"/>
<path d="" fill="#FFFFFD" transform="translate(0,0)"/>
<path d="" fill="#FFFEFF" transform="translate(0,0)"/>
<path d="" fill="#FDFEFE" transform="translate(0,0)"/>
<path d="" fill="#FEFEFE" transform="translate(0,0)"/>
<path d="" fill="#FFFEFD" transform="translate(0,0)"/>
<path d="" fill="#FFFFFE" transform="translate(0,0)"/>
<path d="" fill="#FFFDFE" transform="translate(0,0)"/>
<path d="" fill="#FDFDFF" transform="translate(0,0)"/>
<path d="" fill="#FFFDFF" transform="translate(0,0)"/>
<path d="" fill="#FFFFFF" transform="translate(0,0)"/>
<path d="" fill="#FFFFFF" transform="translate(0,0)"/>
<path d="" fill="#FFFEFF" transform="translate(0,0)"/>
<path d="" fill="#FFFEFF" transform="translate(0,0)"/>
<path d="" fill="#FFFDFF" transform="translate(0,0)"/>
<path d="" fill="#FFFEFD" transform="translate(0,0)"/>
<path d="" fill="#FFFFFD" transform="translate(0,0)"/>
<path d="" fill="#FFFDFF" transform="translate(0,0)"/>
<path d="" fill="#FFFFFD" transform="translate(0,0)"/>
<path d="" fill="#FFFEFF" transform="translate(0,0)"/>
<path d="" fill="#FFFFFF" transform="translate(0,0)"/>
<path d="" fill="#FFFEFD" transform="translate(0,0)"/>
<path d="" fill="#FFFFFF" transform="translate(0,0)"/>
<path d="" fill="#FFFDFF" transform="translate(0,0)"/>
<path d="" fill="#FEFEFF" transform="translate(0,0)"/>
<path d="" fill="#FFFDFD" transform="translate(0,0)"/>
<path d="" fill="#FFFDFF" transform="translate(0,0)"/>
<path d="" fill="#FFFFFF" transform="translate(0,0)"/>
<path d="" fill="#FFFEFF" transform="translate(0,0)"/>
<path d="" fill="#FFFEFF" transform="translate(0,0)"/>
<path d="" fill="#FFFDFF" transform="translate(0,0)"/>
<path d="" fill="#FFFFFE" transform="translate(0,0)"/>
<path d="" fill="#FEFDFD" transform="translate(0,0)"/>
<path d="" fill="#FFFEFF" transform="translate(0,0)"/>
<path d="" fill="#FFFFFE" transform="translate(0,0)"/>
<path d="" fill="#FFFEFD" transform="translate(0,0)"/>
<path d="" fill="#FFFFFF" transform="translate(0,0)"/>
<path d="" fill="#FDFFFF" transform="translate(0,0)"/>
<path d="" fill="#FFFDFF" transform="translate(0,0)"/>
<path d="" fill="#FFFFFD" transform="translate(0,0)"/>
<path d="" fill="#FFFDFE" transform="translate(0,0)"/>
<path d="" fill="#FFFFFF" transform="translate(0,0)"/>
<path d="" fill="#FFFFFF" transform="translate(0,0)"/>
<path d="" fill="#FFFFFF" transform="translate(0,0)"/>
<path d="" fill="#FFFEFF" transform="translate(0,0)"/>
<path d="" fill="#FFFFFF" transform="translate(0,0)"/>
<path d="" fill="#FFFFFF" transform="translate(0,0)"/>
<path d="" fill="#FFFFFE" transform="translate(0,0)"/>
<path d="" fill="#FFFFFF" transform="translate(0,0)"/>
<path d="" fill="#FFFDFD" transform="translate(0,0)"/>
<path d="" fill="#FFFEFF" transform="translate(0,0)"/>
<path d="" fill="#FFFFFF" transform="translate(0,0)"/>
<path d="" fill="#FFFEFE" transform="translate(0,0)"/>
</svg>
