<?xml version="1.0" standalone="no"?>
<!DOCTYPE svg PUBLIC "-//W3C//DTD SVG 20010904//EN"
 "http://www.w3.org/TR/2001/REC-SVG-20010904/DTD/svg10.dtd">
<svg version="1.0" xmlns="http://www.w3.org/2000/svg"
 width="2000.000000pt" height="2000.000000pt" viewBox="0 0 2000.000000 2000.000000"
 preserveAspectRatio="xMidYMid meet">

<g transform="translate(0.000000,2000.000000) scale(0.100000,-0.100000)"
fill="#000000" stroke="none">
<path d="M8117 18009 c-85 -20 -162 -75 -203 -144 -30 -53 32 282 -579 -3125
-396 -2207 -496 -2776 -491 -2819 3 -39 20 -82 57 -155 264 -508 397 -772 390
-779 -4 -4 -311 -212 -682 -461 -371 -250 -693 -471 -717 -492 -24 -21 -56
-58 -70 -83 l-27 -46 -8 -1150 c-4 -632 -5 -2178 -1 -3434 6 -2214 6 -2287 25
-2347 56 -182 227 -322 421 -344 113 -13 7423 -13 7536 0 199 23 372 169 426
360 13 48 16 326 21 2330 3 1251 2 2795 -2 3430 l-8 1155 -27 46 c-14 25 -46
62 -70 83 -24 21 -346 242 -717 492 -371 249 -679 458 -684 463 -7 7 201 425
404 809 15 29 33 77 39 106 11 52 -14 192 -515 2977 -578 3214 -530 2978 -621
3058 -23 20 -63 45 -90 56 -48 20 -74 20 -1909 22 -1064 0 -1876 -3 -1898 -8z
m2207 -2121 c3 -18 152 -844 330 -1836 320 -1775 325 -1804 309 -1838 -10 -19
-22 -33 -27 -30 -6 2 -177 116 -381 254 -203 137 -390 260 -415 273 -38 20
-59 24 -140 24 -81 0 -102 -4 -140 -24 -25 -13 -211 -136 -415 -274 -203 -137
-375 -252 -382 -254 -7 -3 -20 11 -29 30 -16 34 -16 42 19 234 20 109 167 929
327 1823 160 894 293 1631 295 1638 3 9 77 12 324 12 l319 0 6 -32z"/>
</g>
</svg>
